<?xml version="1.0" encoding="utf-8"?>
<!-- Generator: Adobe Illustrator 14.0.0, SVG Export Plug-In  -->
<!DOCTYPE svg PUBLIC "-//W3C//DTD SVG 1.1//EN" "http://www.w3.org/Graphics/SVG/1.1/DTD/svg11.dtd" [
	<!ENTITY ns_flows "http://ns.adobe.com/Flows/1.0/">
]>
<svg version="1.1"
	 xmlns="http://www.w3.org/2000/svg" xmlns:xlink="http://www.w3.org/1999/xlink" xmlns:a="http://ns.adobe.com/AdobeSVGViewerExtensions/3.0/"
	 x="0px" y="0px" width="400px" height="100px" viewBox="-3.342 -2.254 400 100" enable-background="new -3.342 -2.254 400 100"
	 xml:space="preserve">
<defs>
</defs>
<text transform="matrix(1 0 0 1 99.6812 77.9009)" fill="#FFFFFF" font-family="'AzureoN'" font-size="91.649">struena</text>
<path fill="#FFFFFF" d="M54.237,21.873c-6.4-5.236-12.801-10.477-19.204-15.714C25.572,17.718,20.872,32.45,21.888,47.356
	c0.427-0.917,0.879-1.805,1.348-2.671C30.113,29.782,39.919,23.773,54.237,21.873z"/>
<path fill="#FFFFFF" d="M54.237,21.873c-6.4-5.236-12.801-10.477-19.204-15.714C25.572,17.718,20.872,32.45,21.888,47.356
	c0.427-0.917,0.879-1.805,1.348-2.671C30.113,29.782,39.919,23.773,54.237,21.873z"/>
<path fill="#FFFFFF" d="M72.564,47.129c1.335-8.164,2.672-16.327,4.007-24.49c-14.74-2.415-29.851,0.882-42.25,9.214
	c1.008-0.087,2-0.141,2.986-0.168C53.653,30.19,63.76,35.679,72.564,47.129z"/>
<path fill="#FFFFFF" d="M59.868,75.649c7.735-2.924,15.474-5.85,23.212-8.771c-5.28-13.976-15.688-25.414-29.106-31.985
	c0.579,0.829,1.122,1.664,1.638,2.503C65.079,50.803,65.38,62.298,59.868,75.649z"/>
<path fill="#FFFFFF" d="M28.841,78.917c6.404,5.236,12.805,10.476,19.205,15.716c9.461-11.561,14.163-26.293,13.148-41.199
	c-0.43,0.913-0.882,1.804-1.351,2.671C52.967,71.009,43.162,77.014,28.841,78.917z"/>
<path fill="#FFFFFF" d="M10.516,53.661C9.181,61.824,7.843,69.986,6.507,78.15c14.741,2.413,29.851-0.883,42.252-9.214
	c-1.006,0.09-2.002,0.139-2.987,0.168C29.425,70.598,19.322,65.11,10.516,53.661z"/>
<path fill="#FFFFFF" d="M23.215,25.139C15.476,28.063,7.738,30.989,0,33.913c5.283,13.976,15.689,25.411,29.105,31.985
	c-0.579-0.83-1.122-1.664-1.636-2.503C18,49.987,17.699,38.49,23.215,25.139z"/>
</svg>
